<?xml version="1.0" encoding="utf-8"?>
<!-- Generator: Adobe Illustrator 26.5.0, SVG Export Plug-In . SVG Version: 6.00 Build 0)  -->
<svg version="1.1" id="Calque_1" xmlns="http://www.w3.org/2000/svg" xmlns:xlink="http://www.w3.org/1999/xlink" x="0px" y="0px"
	 viewBox="0 0 68.7 68.8" style="enable-background:new 0 0 68.7 68.8;" xml:space="preserve">
<style type="text/css">
	.st0{fill:#E60000;}
	.st1{fill:#FF0101;}
	.st2{fill:#020203;}
	.st3{fill:#FF0101;filter:url(#Adobe_OpacityMaskFilter);}
	.st4{mask:url(#mask0_48_1_00000098921056863822422070000017039566154361244314_);}
	.st5{fill:#282D30;}
	.st6{fill:#FFFFFF;}
</style>
<path class="st0" d="M72.3-40.8c-1.1-0.5-1.9-1.3-2.6-2.2c-0.6-1-0.9-2-1-3.3h3c0.1,1.1,0.6,2,1.3,2.7c0.8,0.7,1.9,1,3.1,1
	c1.1,0,2-0.3,2.7-0.7c0.7-0.5,1.1-1.1,1.1-2c0-0.6-0.2-1.1-0.6-1.5c-0.4-0.4-0.9-0.6-1.5-0.8c-0.6-0.2-1.6-0.4-2.8-0.6h-0.1
	c-1.1-0.2-2.1-0.4-3-0.8c-0.8-0.4-1.5-0.9-2.1-1.6c-0.5-0.7-0.8-1.6-0.8-2.8c0-1.1,0.3-2,0.8-2.9c0.6-0.8,1.3-1.5,2.3-2
	c1-0.4,2.1-0.7,3.4-0.7c1.3,0,2.5,0.3,3.5,0.8c1.1,0.5,1.9,1.1,2.5,2c0.6,0.9,0.9,1.9,0.9,3h-3c-0.1-1-0.6-1.7-1.3-2.3
	c-0.7-0.6-1.6-0.9-2.7-0.9c-1.1,0-1.9,0.3-2.6,0.7c-0.6,0.4-0.9,1.1-0.9,2c0,0.6,0.2,1.1,0.6,1.5c0.4,0.3,0.9,0.6,1.5,0.8
	c0.6,0.2,1.5,0.4,2.7,0.6c1.2,0.2,2.2,0.5,3.1,0.8c0.9,0.3,1.6,0.9,2.1,1.6c0.6,0.7,0.8,1.6,0.8,2.8c0,1.1-0.3,2-0.9,2.9
	c-0.6,0.9-1.4,1.5-2.5,2c-1.1,0.5-2.2,0.7-3.5,0.7C74.7-40,73.3-40.3,72.3-40.8z"/>
<path class="st0" d="M95.9-53.1c0.9,0.6,1.7,1.3,2.3,2.4c0.6,1.1,0.8,2.3,0.8,3.7c0,1.4-0.3,2.6-0.8,3.6c-0.6,1.1-1.3,1.9-2.3,2.5
	c-0.9,0.6-2.1,0.9-3.3,0.9c-1.2,0-2.2-0.3-3-0.8c-0.8-0.5-1.4-1.2-1.8-2l0.4-0.6v8.6h-2.8v-19h2.5l0.6,3.4L87.7-51
	c0.5-0.8,1.1-1.5,1.9-2.1c0.8-0.5,1.8-0.8,3-0.8C93.8-54,94.8-53.6,95.9-53.1z M90-51c-0.6,0.4-1.1,0.9-1.4,1.6
	c-0.3,0.7-0.5,1.5-0.5,2.3c0,0.9,0.2,1.7,0.5,2.4c0.3,0.7,0.8,1.2,1.4,1.6c0.6,0.4,1.3,0.6,2.1,0.6c0.8,0,1.4-0.2,2.1-0.6
	c0.6-0.4,1.1-1,1.4-1.6c0.3-0.7,0.5-1.5,0.5-2.3c0-0.9-0.2-1.6-0.5-2.3c-0.3-0.7-0.8-1.2-1.4-1.6c-0.6-0.4-1.3-0.6-2.1-0.6
	C91.3-51.5,90.6-51.4,90-51z"/>
<path class="st0" d="M104-40.9c-1.1-0.6-1.9-1.4-2.5-2.5c-0.6-1.1-0.9-2.3-0.9-3.6c0-1.4,0.3-2.6,0.9-3.7c0.6-1.1,1.4-1.8,2.5-2.4
	c1.1-0.6,2.3-0.9,3.6-0.9c1.4,0,2.6,0.3,3.6,0.9c1.1,0.6,1.9,1.4,2.5,2.4c0.6,1.1,0.9,2.3,0.9,3.7c0,1.4-0.3,2.6-0.9,3.7
	c-0.6,1.1-1.4,1.8-2.5,2.5c-1.1,0.6-2.3,0.9-3.6,0.9C106.2-40,105-40.3,104-40.9z M109.7-43c0.6-0.4,1.1-0.9,1.4-1.6
	c0.3-0.7,0.5-1.5,0.5-2.3c0-0.9-0.2-1.6-0.5-2.3c-0.3-0.7-0.8-1.2-1.4-1.6c-0.6-0.4-1.3-0.6-2.1-0.6c-0.8,0-1.5,0.2-2.1,0.6
	c-0.6,0.4-1.1,0.9-1.4,1.6c-0.3,0.7-0.5,1.5-0.5,2.3c0,0.9,0.2,1.6,0.5,2.3c0.3,0.7,0.8,1.2,1.4,1.6c0.6,0.4,1.3,0.6,2.1,0.6
	C108.4-42.5,109.1-42.7,109.7-43z"/>
<path class="st0" d="M119.3-53.8l0.5,3.4l-0.6-0.6c0.4-0.8,0.9-1.5,1.6-2c0.6-0.5,1.6-0.7,2.8-0.7h0.6v2.7h-1.3
	c-1.2,0-2,0.4-2.6,1.1c-0.5,0.8-0.8,1.8-0.8,3v6.8h-2.8v-13.7H119.3z"/>
<path class="st0" d="M126.1-57.6h2.8v3.8h3.3v2.5h-3.3v7.1c0,0.6,0.1,1,0.3,1.1c0.2,0.3,0.6,0.3,1.1,0.3h2.2v2.5h-2.8
	c-1.3,0-2.2-0.3-2.8-0.9c-0.6-0.6-0.9-1.5-0.9-2.8V-57.6z"/>
<path class="st0" d="M137.2-40.8c-1.1-0.5-1.9-1.3-2.6-2.2c-0.6-1-0.9-2-1-3.3h3c0.1,1.1,0.6,2,1.3,2.7c0.8,0.7,1.9,1,3.1,1
	c1.1,0,2-0.3,2.7-0.7c0.7-0.5,1.1-1.1,1.1-2c0-0.6-0.2-1.1-0.6-1.5c-0.4-0.4-0.9-0.6-1.5-0.8c-0.6-0.2-1.6-0.4-2.8-0.6h-0.1
	c-1.1-0.2-2.1-0.4-3-0.8c-0.8-0.4-1.5-0.9-2.1-1.6c-0.5-0.7-0.8-1.6-0.8-2.8c0-1.1,0.3-2,0.8-2.9c0.6-0.8,1.3-1.5,2.3-2
	c1-0.4,2.1-0.7,3.4-0.7c1.3,0,2.5,0.3,3.5,0.8c1.1,0.5,1.9,1.1,2.5,2c0.6,0.9,0.9,1.9,0.9,3h-3c-0.1-1-0.6-1.7-1.3-2.3
	c-0.7-0.6-1.6-0.9-2.7-0.9c-1.1,0-1.9,0.3-2.6,0.7c-0.6,0.4-0.9,1.1-0.9,2c0,0.6,0.2,1.1,0.6,1.5c0.4,0.3,0.9,0.6,1.5,0.8
	c0.6,0.2,1.5,0.4,2.7,0.6c1.2,0.2,2.2,0.5,3.1,0.8c0.9,0.3,1.6,0.9,2.1,1.6c0.6,0.7,0.8,1.6,0.8,2.8c0,1.1-0.3,2-0.9,2.9
	c-0.6,0.9-1.4,1.5-2.5,2c-1.1,0.5-2.2,0.7-3.5,0.7C139.6-40,138.3-40.3,137.2-40.8z"/>
<path class="st0" d="M153-40.9c-1.1-0.6-1.9-1.4-2.5-2.4c-0.6-1.1-0.9-2.3-0.9-3.7c0-1.4,0.3-2.7,0.8-3.7c0.6-1,1.3-1.8,2.3-2.4
	c1-0.6,2.1-0.9,3.5-0.9c1.3,0,2.5,0.3,3.5,0.8c1,0.5,1.8,1.3,2.3,2.3c0.6,1,0.9,2.2,0.9,3.4c0,0.2,0,0.3,0,0.5c0,0.2,0,0.4-0.1,0.6
	h-10.2c0,0.1,0,0.1,0,0.1v0.1c0.1,0.8,0.2,1.5,0.5,2c0.3,0.6,0.8,1,1.3,1.3c0.6,0.3,1.2,0.5,1.9,0.5c0.9,0,1.6-0.2,2.2-0.6
	c0.6-0.4,1-1,1.2-1.8h2.9c-0.2,0.9-0.5,1.7-1.1,2.4c-0.6,0.7-1.3,1.3-2.1,1.7c-0.9,0.4-1.8,0.6-2.9,0.6
	C155.3-40,154.1-40.3,153-40.9z M154.7-51.2c-0.5,0.3-0.9,0.6-1.3,1.1c-0.3,0.5-0.6,1-0.6,1.6h7.2c-0.1-1-0.5-1.8-1.1-2.3
	c-0.6-0.6-1.5-0.8-2.5-0.8C155.8-51.7,155.2-51.5,154.7-51.2z"/>
<path class="st0" d="M168.1-40.9c-1.1-0.6-1.9-1.4-2.5-2.4c-0.6-1.1-0.9-2.3-0.9-3.7c0-1.4,0.3-2.7,0.8-3.7c0.6-1,1.3-1.8,2.3-2.4
	c1-0.6,2.1-0.9,3.5-0.9c1.3,0,2.5,0.3,3.5,0.8c1,0.5,1.8,1.3,2.3,2.3c0.6,1,0.9,2.2,0.9,3.4c0,0.2,0,0.3,0,0.5c0,0.2,0,0.4-0.1,0.6
	h-10.2c0,0.1,0,0.1,0,0.1v0.1c0.1,0.8,0.2,1.5,0.5,2c0.3,0.6,0.8,1,1.3,1.3c0.6,0.3,1.2,0.5,1.9,0.5c0.9,0,1.6-0.2,2.2-0.6
	c0.6-0.4,1-1,1.2-1.8h2.9c-0.2,0.9-0.5,1.7-1.1,2.4c-0.6,0.7-1.3,1.3-2.1,1.7c-0.9,0.4-1.8,0.6-2.9,0.6
	C170.3-40,169.1-40.3,168.1-40.9z M169.8-51.2c-0.5,0.3-0.9,0.6-1.3,1.1c-0.3,0.5-0.6,1-0.6,1.6h7.2c-0.1-1-0.5-1.8-1.1-2.3
	c-0.6-0.6-1.5-0.8-2.5-0.8C170.8-51.7,170.3-51.5,169.8-51.2z"/>
<path class="st1" d="M29.6-20.7c15.8,0,28.6-12.9,28.6-28.9c0-15.9-12.8-28.9-28.6-28.9C13.8-78.4,1-65.5,1-49.5
	C1-33.6,13.8-20.7,29.6-20.7z"/>
<path class="st2" d="M41.9-62c2.6,0,4.8-2.2,4.8-4.8c0-2.7-2.1-4.8-4.8-4.8s-4.8,2.2-4.8,4.8C37.1-64.1,39.3-62,41.9-62z"/>
<defs>
	<filter id="Adobe_OpacityMaskFilter" filterUnits="userSpaceOnUse" x="0.1" y="-67.3" width="52.4" height="49.8">
		<feColorMatrix  type="matrix" values="1 0 0 0 0  0 1 0 0 0  0 0 1 0 0  0 0 0 1 0"/>
	</filter>
</defs>
<mask maskUnits="userSpaceOnUse" x="0.1" y="-67.3" width="52.4" height="49.8" id="mask0_48_1_00000098921056863822422070000017039566154361244314_">
	<path class="st3" d="M29.6-20.7c15.8,0,28.6-12.9,28.6-28.9c0-15.9-12.8-28.9-28.6-28.9C13.8-78.4,1-65.5,1-49.5
		C1-33.6,13.8-20.7,29.6-20.7z"/>
</mask>
<g class="st4">
	<path class="st2" d="M40.5-49c0.3,0.5,0.9,0.8,1.5,0.8c0.3,0,0.6-0.1,0.9-0.3l8.6-5.2c0.9-0.5,1.1-1.6,0.6-2.5
		c-0.5-0.9-1.6-1.1-2.5-0.6l-7.2,4.3l-3.5-6.8c-0.9-1-2-1.9-3.1-2.7l-10.2-5.2c-0.7-0.3-1.4-0.3-2,0.3L15.3-59
		c-0.8,0.7-0.8,1.8-0.1,2.5c0.7,0.8,1.8,0.8,2.5,0.1l7.7-7l5.3,2.7l-9.2,14.3l-20.9,25c-0.8,1-0.8,2.5,0.3,3.3
		c0.9,0.8,2.5,0.8,3.3-0.3l20.3-23.7l8.7,2l-6,9.4c-0.6,1.1-0.3,2.5,0.9,3.2c1,0.6,2.3,0.3,3-0.7l7.7-12.2c0.4-0.6,0.5-1.5,0.3-2.2
		c-0.3-0.7-0.9-1.2-1.6-1.3l-6.7-1.6l6.1-9.6L40.5-49z"/>
</g>
<path class="st5" d="M118,0C99.2,0,83.9,15.4,83.9,34.4c0,8.8,3.3,16.8,8.6,22.8l15.9-19l10.9-17.1l-6.4-3.3l-9.2,8.3
	c-0.8,0.8-2.2,0.8-3-0.2c-0.8-0.8-0.7-2.2,0.1-3l10.2-9.3c0.7-0.6,1.6-0.7,2.4-0.3l12.2,6.2c1.3,1,2.5,2.1,3.7,3.3l4.1,8.1l8.5-5.1
	c1-0.6,2.3-0.3,2.9,0.8c0.6,1,0.3,2.3-0.7,2.9l-10.3,6.2c-0.4,0.2-0.7,0.3-1.1,0.3c-0.7,0-1.4-0.4-1.8-1l-4.5-7.1l-7.3,11.5l8,1.9
	c0.9,0.2,1.6,0.8,1.9,1.6c0.3,0.8,0.2,1.8-0.3,2.6l-9.1,14.6c-0.8,1.2-2.4,1.5-3.6,0.8c-1.3-0.8-1.8-2.4-1-3.8l7.1-11.3l-10.4-2.4
	L96.6,61.2c5.8,4.7,13.3,7.6,21.4,7.6c18.8,0,34.1-15.4,34.1-34.4C152.1,15.4,136.8,0,118,0z M132.7,19.6c-3.1,0-5.7-2.6-5.7-5.7
	s2.5-5.7,5.7-5.7s5.7,2.6,5.7,5.7S135.8,19.6,132.7,19.6z"/>
<path class="st6" d="M34.3,0C15.5,0,0.3,15.4,0.3,34.4c0,8.8,3.3,16.8,8.6,22.8l15.9-19l10.9-17.1l-6.4-3.3l-9.2,8.3
	c-0.8,0.8-2.2,0.8-3-0.2c-0.8-0.8-0.7-2.2,0.1-3l10.2-9.3c0.7-0.6,1.6-0.7,2.4-0.3l12.2,6.2c1.3,1,2.5,2.1,3.7,3.3l4.1,8.1l8.5-5.1
	c1-0.6,2.3-0.3,2.9,0.8c0.6,1,0.3,2.3-0.7,2.9l-10.3,6.2c-0.4,0.2-0.7,0.3-1.1,0.3c-0.7,0-1.4-0.4-1.8-1L42.9,28l-7.3,11.5l8,1.9
	c0.9,0.2,1.6,0.8,1.9,1.6c0.3,0.8,0.2,1.8-0.3,2.6l-9.1,14.6c-0.8,1.2-2.4,1.5-3.6,0.8c-1.3-0.8-1.8-2.4-1-3.8l7.1-11.3l-10.4-2.4
	L13,61.2c5.8,4.7,13.3,7.6,21.4,7.6c18.8,0,34.1-15.4,34.1-34.4C68.4,15.4,53.2,0,34.3,0z M49,19.6c-3.1,0-5.7-2.6-5.7-5.7
	s2.5-5.7,5.7-5.7s5.7,2.6,5.7,5.7S52.2,19.6,49,19.6z"/>
</svg>
